<?xml version="1.0" standalone="no"?>
<!DOCTYPE svg PUBLIC "-//W3C//DTD SVG 20010904//EN"
 "http://www.w3.org/TR/2001/REC-SVG-20010904/DTD/svg10.dtd">
<svg version="1.0" xmlns="http://www.w3.org/2000/svg"
 width="2000.000000pt" height="2000.000000pt" viewBox="0 0 2000.000000 2000.000000"
 preserveAspectRatio="xMidYMid meet">
<metadata>
Created by potrace 1.15, written by Peter Selinger 2001-2017
</metadata>
<g transform="translate(0.000000,2000.000000) scale(0.100000,-0.100000)"
fill="#000000" stroke="none">
<path d="M9265 19989 c-1302 -94 -2601 -456 -3775 -1050 -1524 -771 -2847
-1943 -3797 -3364 -918 -1374 -1470 -2915 -1637 -4575 -36 -351 -41 -481 -41
-1000 1 -562 9 -715 61 -1160 193 -1649 789 -3214 1740 -4572 544 -775 1222
-1494 1971 -2091 558 -444 1109 -795 1763 -1121 507 -253 983 -444 1510 -606
1292 -398 2680 -530 4035 -384 2948 317 5603 1931 7252 4409 855 1285 1402
2761 1592 4295 55 442 56 469 56 1240 0 782 -2 818 -61 1280 -193 1505 -721
2937 -1552 4205 -600 915 -1356 1735 -2227 2415 -724 565 -1547 1039 -2405
1385 -813 328 -1714 556 -2585 654 -403 46 -527 51 -1173 50 -339 -1 -666 -5
-727 -10z m1055 -2549 c1327 -63 2582 -459 3685 -1163 220 -141 563 -391 735
-537 l35 -29 -5245 -5246 c-2885 -2885 -5248 -5244 -5252 -5243 -11 5 -145
174 -271 343 -1148 1538 -1655 3505 -1397 5420 251 1852 1163 3508 2601 4720
1415 1193 3265 1821 5109 1735z m5487 -2782 c1378 -1719 1924 -3945 1498
-6104 -332 -1685 -1223 -3182 -2553 -4292 -1458 -1216 -3329 -1823 -5242
-1701 -1522 97 -2975 662 -4175 1622 -55 44 -104 84 -110 89 -6 5 2021 2039
5235 5253 2885 2885 5248 5245 5251 5245 3 0 46 -51 96 -112z"/>
</g>
</svg>
